<svg width="560" height="319" viewBox="0 0 560 319" fill="none" xmlns="http://www.w3.org/2000/svg">
<g filter="url(#filter0_d)">
<rect y="61" width="250" height="250" rx="20" fill="#FF601C"/>
<rect x="13" y="73" width="225" height="225" rx="20" fill="#36357E"/>
<path d="M68.6962 133.288C72.7282 133.288 75.1042 131.2 75.1042 128.056C75.1042 125.008 72.7522 123.952 69.2002 123.16C66.6562 122.584 65.6722 122.2 65.6722 121C65.6722 120.016 66.5842 119.224 68.0962 119.224C69.6802 119.224 71.3362 119.872 72.8002 121.048L74.6482 118.504C72.9682 117.064 70.8802 116.224 68.1922 116.224C64.5922 116.224 62.0962 118.312 62.0962 121.36C62.0962 124.552 64.5682 125.536 68.0482 126.328C70.5682 126.904 71.5282 127.264 71.5282 128.44C71.5282 129.472 70.6162 130.288 68.8402 130.288C66.7522 130.288 64.9762 129.472 63.4162 128.128L61.3762 130.552C63.2962 132.328 65.8402 133.288 68.6962 133.288ZM81.6757 118.024C82.4677 118.024 83.4757 119.248 84.8197 119.248C86.4037 119.248 87.2437 118.192 87.4837 116.08L85.7557 115.84C85.5877 116.704 85.2757 117.088 84.7477 117.088C83.9797 117.088 82.9237 115.864 81.5797 115.864C80.0197 115.864 79.1797 116.944 78.9157 119.032L80.6677 119.296C80.8357 118.408 81.1477 118.024 81.6757 118.024ZM83.0917 120.304C81.3637 120.304 79.6597 120.784 77.9077 121.672L79.0837 124C80.0677 123.496 81.1477 123.112 82.2997 123.112C84.3397 123.112 85.1557 124.264 85.1557 125.584V125.824C84.0997 125.416 82.9957 125.2 81.9877 125.2C79.1077 125.2 76.8277 126.88 76.8277 129.328C76.8277 131.704 78.8677 133.288 81.5077 133.288C82.8517 133.288 84.2677 132.76 85.1557 131.752V133H88.5397V125.584C88.5397 122.344 86.3317 120.304 83.0917 120.304ZM82.2997 130.864C81.0997 130.864 80.2117 130.24 80.2117 129.232C80.2117 128.224 81.2197 127.48 82.4917 127.48C83.4517 127.48 84.3637 127.648 85.1557 127.936V129.088C84.9157 130.24 83.6437 130.864 82.2997 130.864ZM97.589 133.288C101.261 133.288 104.333 130.312 104.333 126.784C104.333 123.256 101.261 120.304 97.589 120.304C93.893 120.304 90.797 123.256 90.797 126.784C90.797 130.312 93.893 133.288 97.589 133.288ZM97.589 130.336C95.717 130.336 94.157 128.704 94.157 126.784C94.157 124.864 95.717 123.256 97.589 123.256C99.437 123.256 100.997 124.864 100.997 126.784C100.997 128.704 99.437 130.336 97.589 130.336ZM113.503 133H117.031V127.648H120.919C124.495 127.648 127.135 125.344 127.135 122.08C127.135 118.816 124.495 116.512 120.919 116.512H113.503V133ZM117.031 124.408V119.752H120.535C122.287 119.752 123.487 120.664 123.487 122.08C123.487 123.496 122.287 124.408 120.535 124.408H117.031ZM134.795 120.304C133.067 120.304 131.363 120.784 129.611 121.672L130.787 124C131.771 123.496 132.851 123.112 134.003 123.112C136.043 123.112 136.859 124.264 136.859 125.584V125.824C135.803 125.416 134.699 125.2 133.691 125.2C130.811 125.2 128.531 126.88 128.531 129.328C128.531 131.704 130.571 133.288 133.211 133.288C134.555 133.288 135.971 132.76 136.859 131.752V133H140.243V125.584C140.243 122.344 138.035 120.304 134.795 120.304ZM134.003 130.864C132.803 130.864 131.915 130.24 131.915 129.232C131.915 128.224 132.923 127.48 134.195 127.48C135.155 127.48 136.067 127.648 136.859 127.936V129.088C136.619 130.24 135.347 130.864 134.003 130.864ZM151.428 120.592V128.008L151.404 127.936C151.404 129.28 150.276 130.336 148.812 130.336C147.42 130.336 146.46 129.28 146.46 127.744V120.592H143.076V128.488C143.076 131.296 144.996 133.288 147.684 133.288C149.292 133.288 150.684 132.568 151.428 131.44V133H154.932V120.592H151.428ZM157.938 133H161.442V116.224H157.938V133ZM170.597 133.288C174.269 133.288 177.341 130.312 177.341 126.784C177.341 123.256 174.269 120.304 170.597 120.304C166.901 120.304 163.805 123.256 163.805 126.784C163.805 130.312 166.901 133.288 170.597 133.288ZM170.597 130.336C168.725 130.336 167.165 128.704 167.165 126.784C167.165 124.864 168.725 123.256 170.597 123.256C172.445 123.256 174.005 124.864 174.005 126.784C174.005 128.704 172.445 130.336 170.597 130.336ZM75.4791 157H79.0071V146.728L84.1191 156.04L89.2071 146.728V157H92.7591V140.512H89.2071L84.1191 149.824L79.0071 140.512H75.4791V157ZM108.244 157H112.228L105.508 140.512H101.548L94.8276 157H98.7876L99.8436 154.408H107.188L108.244 157ZM101.068 151.408L103.516 145.384L105.964 151.408H101.068ZM116.849 157H120.401V143.704H125.537V140.512H111.713V143.704H116.849V157ZM141.849 157L137.793 151.24C140.049 150.448 141.537 148.528 141.537 146.08C141.537 142.816 138.897 140.512 135.321 140.512H127.905V157H131.433V151.648H134.049L137.817 157H141.849ZM131.433 143.752H134.937C136.689 143.752 137.889 144.664 137.889 146.08C137.889 147.496 136.689 148.408 134.937 148.408H131.433V143.752ZM144.219 157H147.771V140.512H144.219V157ZM150.582 157H164.19V153.808H155.43L164.094 143.2V140.512H150.75V143.704H159.222L150.558 154.312L150.582 157ZM46.9862 181L42.9302 175.24C45.1862 174.448 46.6742 172.528 46.6742 170.08C46.6742 166.816 44.0342 164.512 40.4582 164.512H33.0422V181H36.5702V175.648H39.1862L42.9542 181H46.9862ZM36.5702 167.752H40.0742C41.8262 167.752 43.0262 168.664 43.0262 170.08C43.0262 171.496 41.8262 172.408 40.0742 172.408H36.5702V167.752ZM57.4438 168.592V176.008L57.4198 175.936C57.4198 177.28 56.2918 178.336 54.8278 178.336C53.4358 178.336 52.4758 177.28 52.4758 175.744V168.592H49.0918V176.488C49.0918 179.296 51.0118 181.288 53.6998 181.288C55.3078 181.288 56.6998 180.568 57.4438 179.44V181H60.9478V168.592H57.4438ZM69.498 168.304C67.77 168.304 66.066 168.784 64.314 169.672L65.49 172C66.474 171.496 67.554 171.112 68.706 171.112C70.746 171.112 71.562 172.264 71.562 173.584V173.824C70.506 173.416 69.402 173.2 68.394 173.2C65.514 173.2 63.234 174.88 63.234 177.328C63.234 179.704 65.274 181.288 67.914 181.288C69.258 181.288 70.674 180.76 71.562 179.752V181H74.946V173.584C74.946 170.344 72.738 168.304 69.498 168.304ZM68.706 178.864C67.506 178.864 66.618 178.24 66.618 177.232C66.618 176.224 67.626 175.48 68.898 175.48C69.858 175.48 70.77 175.648 71.562 175.936V177.088C71.322 178.24 70.05 178.864 68.706 178.864ZM84.8424 181H93.5064C96.6504 181 98.9064 179.176 98.9064 176.536C98.9064 174.712 97.8024 173.176 95.8824 172.312C97.3464 171.544 98.1864 170.32 98.1864 168.64C98.1864 166.24 96.1464 164.512 93.1944 164.512H84.8424V181ZM88.3704 171.16V167.536H92.3064C93.6264 167.536 94.5624 168.304 94.5624 169.336C94.5624 170.392 93.6264 171.16 92.3064 171.16H88.3704ZM88.3704 177.976V173.944H92.8584C94.2744 173.944 95.2824 174.784 95.2824 175.96C95.2824 177.136 94.2744 177.976 92.8584 177.976H88.3704ZM107.24 178.192C105.776 178.192 104.696 177.28 104.288 175.936H113.24C113.24 171.256 110.96 168.304 107.072 168.304C103.448 168.304 100.688 171.016 100.688 174.76C100.688 178.576 103.568 181.288 107.264 181.288C109.088 181.288 111.224 180.52 112.328 179.368L110.096 177.088C109.424 177.736 108.224 178.192 107.24 178.192ZM107.216 171.4C108.632 171.4 109.544 172.192 109.88 173.416H104.336C104.792 172.168 105.896 171.4 107.216 171.4ZM115.61 181H119.114V164.224H115.61V181ZM127.717 168.304C125.989 168.304 124.285 168.784 122.533 169.672L123.709 172C124.693 171.496 125.773 171.112 126.925 171.112C128.965 171.112 129.781 172.264 129.781 173.584V173.824C128.725 173.416 127.621 173.2 126.613 173.2C123.733 173.2 121.453 174.88 121.453 177.328C121.453 179.704 123.493 181.288 126.133 181.288C127.477 181.288 128.893 180.76 129.781 179.752V181H133.165V173.584C133.165 170.344 130.957 168.304 127.717 168.304ZM126.925 178.864C125.725 178.864 124.837 178.24 124.837 177.232C124.837 176.224 125.845 175.48 127.117 175.48C128.077 175.48 128.989 175.648 129.781 175.936V177.088C129.541 178.24 128.269 178.864 126.925 178.864ZM151.029 181.288C153.525 181.288 155.829 180.208 157.437 178.528L154.869 176.224C153.909 177.328 152.541 178.072 151.029 178.072C148.269 178.072 145.917 175.624 145.917 172.744C145.917 169.888 148.269 167.44 151.029 167.44C152.541 167.44 153.909 168.184 154.869 169.288L157.437 166.984C155.829 165.28 153.525 164.224 151.029 164.224C146.301 164.224 142.269 168.112 142.269 172.744C142.269 177.376 146.301 181.288 151.029 181.288ZM161.284 166.888C162.316 166.888 163.156 166.024 163.156 164.968C163.156 163.984 162.316 163.096 161.284 163.096C160.204 163.096 159.364 163.984 159.364 164.968C159.364 166.024 160.204 166.888 161.284 166.888ZM159.508 181H163.012V168.592H159.508V181ZM173.247 168.304C171.639 168.304 170.247 169.024 169.503 170.152V168.592H165.999V181H169.503V173.584L169.527 173.656C169.527 172.312 170.655 171.256 172.119 171.256C173.511 171.256 174.471 172.312 174.471 173.848V181H177.855V173.104C177.855 170.296 175.935 168.304 173.247 168.304ZM187.341 177.928C187.101 178.168 186.621 178.336 186.141 178.336C185.493 178.336 184.965 177.76 184.965 176.944V171.424H187.653V168.592H184.965V165.184H181.605V168.592H179.901V171.424H181.605V177.496C181.605 179.728 183.141 181.288 185.325 181.288C186.333 181.288 187.461 180.856 188.181 180.208L187.341 177.928ZM193.88 170.896V168.592H190.376V181H193.88V175.072C193.88 172.744 195.536 171.256 198.128 171.256V168.304C196.232 168.304 194.696 169.288 193.88 170.896ZM205.693 168.304C203.965 168.304 202.261 168.784 200.509 169.672L201.685 172C202.669 171.496 203.749 171.112 204.901 171.112C206.941 171.112 207.757 172.264 207.757 173.584V173.824C206.701 173.416 205.597 173.2 204.589 173.2C201.709 173.2 199.429 174.88 199.429 177.328C199.429 179.704 201.469 181.288 204.109 181.288C205.453 181.288 206.869 180.76 207.757 179.752V181H211.141V173.584C211.141 170.344 208.933 168.304 205.693 168.304ZM204.901 178.864C203.701 178.864 202.813 178.24 202.813 177.232C202.813 176.224 203.821 175.48 205.093 175.48C206.053 175.48 206.965 175.648 207.757 175.936V177.088C207.517 178.24 206.245 178.864 204.901 178.864ZM215.799 184.504C217.527 182.848 218.343 181.336 218.343 179.92C218.343 178.168 217.407 176.92 216.063 176.92C214.863 176.92 213.903 177.928 213.903 179.128C213.903 180.304 214.863 181.288 216.015 181.288C215.799 182.056 215.295 182.872 214.551 183.544L215.799 184.504ZM43.4428 188.224C39.8428 188.224 37.1308 190.552 37.1308 193.936C37.1308 197.2 39.6508 199.168 42.6988 199.168C44.2588 199.168 45.7468 198.592 46.7788 197.608C46.4668 200.392 45.0028 202.168 42.8668 202.168C41.4988 202.168 40.5148 201.664 39.5068 200.824L37.8268 203.512C39.1708 204.592 40.8268 205.288 42.8908 205.288C47.4508 205.288 50.4508 201.616 50.4508 196.48C50.4508 191.68 48.2668 188.224 43.4428 188.224ZM43.7308 196.288C42.1228 196.288 40.7788 195.352 40.7788 193.768C40.7788 192.448 41.8828 191.224 43.6348 191.224C45.4828 191.224 46.3708 192.352 46.6828 194.368C46.2028 195.544 45.0988 196.288 43.7308 196.288ZM58.9607 205.288C62.5847 205.288 65.5847 203.584 65.5847 200.584C65.5847 198.688 64.2887 197.248 62.3447 196.48C64.0007 195.76 65.1767 194.56 65.1767 192.712C65.1767 189.88 62.2487 188.224 58.9607 188.224C55.7447 188.224 52.7687 189.808 52.7687 192.712C52.7687 194.584 53.9447 195.784 55.5767 196.48C53.6807 197.2 52.3367 198.64 52.3367 200.584C52.3367 203.56 55.3127 205.288 58.9607 205.288ZM58.9607 195.256C57.6647 195.16 56.2967 194.44 56.2967 193.168C56.2967 192.04 57.3767 191.2 58.9607 191.2C60.5447 191.2 61.6487 192.04 61.6487 193.168C61.6487 194.392 60.2567 195.16 58.9607 195.256ZM58.9607 202.312C57.2087 202.312 55.9367 201.448 55.9367 200.2C55.9367 198.904 57.5447 198.088 58.9607 198.04C60.3767 198.088 62.0087 198.904 62.0087 200.2C62.0087 201.448 60.7127 202.312 58.9607 202.312ZM75.2332 194.344C73.6732 194.344 72.1852 194.92 71.1532 195.904C71.4652 193.12 72.9292 191.344 75.0652 191.344C76.4332 191.344 77.4172 191.848 78.4252 192.688L80.1052 190C78.7612 188.92 77.1052 188.224 75.0412 188.224C70.4812 188.224 67.4812 191.896 67.4812 197.032C67.4812 201.832 69.6652 205.288 74.4892 205.288C78.0892 205.288 80.8012 202.96 80.8012 199.576C80.8012 196.312 78.2812 194.344 75.2332 194.344ZM74.2972 202.288C72.4492 202.288 71.5612 201.16 71.2492 199.144C71.7292 197.968 72.8332 197.224 74.2012 197.224C75.8092 197.224 77.1532 198.16 77.1532 199.744C77.1532 201.064 76.0492 202.288 74.2972 202.288ZM89.6542 199.888H96.2302V196.912H89.6542V199.888ZM105.076 205H117.532V201.808H110.548L113.548 199.48C116.428 197.392 117.388 195.688 117.388 193.48C117.388 190.384 114.844 188.224 111.34 188.224C108.676 188.224 106.588 189.376 104.956 191.44L107.212 193.624C108.412 192.256 109.636 191.44 111.244 191.44C112.588 191.44 113.74 192.256 113.74 193.624C113.74 194.776 113.116 195.856 111.148 197.416L105.076 202.12V205ZM127.331 191.92C127.331 193.28 126.971 194.336 126.251 195.088C125.531 195.824 124.555 196.192 123.323 196.192C122.171 196.192 121.219 195.824 120.467 195.088C119.731 194.336 119.363 193.28 119.363 191.92C119.363 190.56 119.723 189.512 120.443 188.776C121.163 188.04 122.139 187.672 123.371 187.672C124.507 187.672 125.451 188.04 126.203 188.776C126.955 189.512 127.331 190.56 127.331 191.92ZM121.739 191.92C121.739 192.704 121.867 193.296 122.123 193.696C122.379 194.08 122.787 194.272 123.347 194.272C124.403 194.272 124.931 193.488 124.931 191.92C124.931 190.368 124.403 189.592 123.347 189.592C122.787 189.592 122.379 189.784 122.123 190.168C121.867 190.552 121.739 191.136 121.739 191.92ZM141.779 192.304C140.051 192.304 138.347 192.784 136.595 193.672L137.771 196C138.755 195.496 139.835 195.112 140.987 195.112C143.027 195.112 143.843 196.264 143.843 197.584V197.824C142.787 197.416 141.683 197.2 140.675 197.2C137.795 197.2 135.515 198.88 135.515 201.328C135.515 203.704 137.555 205.288 140.195 205.288C141.539 205.288 142.955 204.76 143.843 203.752V205H147.227V197.584C147.227 194.344 145.019 192.304 141.779 192.304ZM140.987 202.864C139.787 202.864 138.899 202.24 138.899 201.232C138.899 200.224 139.907 199.48 141.179 199.48C142.139 199.48 143.051 199.648 143.843 199.936V201.088C143.603 202.24 142.331 202.864 140.987 202.864ZM157.357 192.304C155.749 192.304 154.357 193.024 153.613 194.152V192.592H150.109V205H153.613V197.584L153.637 197.656C153.637 196.312 154.765 195.256 156.229 195.256C157.621 195.256 158.581 196.312 158.581 197.848V205H161.965V197.104C161.965 194.296 160.045 192.304 157.357 192.304ZM174.187 188.224V194.368C173.203 193.072 171.763 192.304 170.011 192.304C166.699 192.304 164.299 194.992 164.299 198.784C164.299 202.6 166.699 205.288 170.011 205.288C171.763 205.288 173.203 204.52 174.187 203.224V205H177.691V188.224H174.187ZM171.019 202.336C169.075 202.336 167.707 200.872 167.707 198.784C167.707 196.72 169.075 195.256 171.019 195.256C172.867 195.256 174.187 196.72 174.187 198.784C174.187 200.872 172.867 202.336 171.019 202.336ZM186.31 192.304C184.582 192.304 182.878 192.784 181.126 193.672L182.302 196C183.286 195.496 184.366 195.112 185.518 195.112C187.558 195.112 188.374 196.264 188.374 197.584V197.824C187.318 197.416 186.214 197.2 185.206 197.2C182.326 197.2 180.046 198.88 180.046 201.328C180.046 203.704 182.086 205.288 184.726 205.288C186.07 205.288 187.486 204.76 188.374 203.752V205H191.758V197.584C191.758 194.344 189.55 192.304 186.31 192.304ZM185.518 202.864C184.318 202.864 183.43 202.24 183.43 201.232C183.43 200.224 184.438 199.48 185.71 199.48C186.67 199.48 187.582 199.648 188.374 199.936V201.088C188.134 202.24 186.862 202.864 185.518 202.864ZM198.216 194.896V192.592H194.712V205H198.216V199.072C198.216 196.744 199.872 195.256 202.464 195.256V192.304C200.568 192.304 199.032 193.288 198.216 194.896ZM37.8378 229.288C40.3338 229.288 42.6378 228.208 44.2458 226.528L41.6778 224.224C40.7178 225.328 39.3498 226.072 37.8378 226.072C35.0778 226.072 32.7258 223.624 32.7258 220.744C32.7258 217.888 35.0778 215.44 37.8378 215.44C39.3498 215.44 40.7178 216.184 41.6778 217.288L44.2458 214.984C42.6378 213.28 40.3338 212.224 37.8378 212.224C33.1098 212.224 29.0778 216.112 29.0778 220.744C29.0778 225.376 33.1098 229.288 37.8378 229.288ZM52.4367 229.288C56.1087 229.288 59.1807 226.312 59.1807 222.784C59.1807 219.256 56.1087 216.304 52.4367 216.304C48.7407 216.304 45.6447 219.256 45.6447 222.784C45.6447 226.312 48.7407 229.288 52.4367 229.288ZM52.4367 226.336C50.5647 226.336 49.0047 224.704 49.0047 222.784C49.0047 220.864 50.5647 219.256 52.4367 219.256C54.2847 219.256 55.8447 220.864 55.8447 222.784C55.8447 224.704 54.2847 226.336 52.4367 226.336ZM68.7276 216.304C67.1196 216.304 65.7276 217.024 64.9836 218.152V216.592H61.4796V229H64.9836V221.584L65.0076 221.656C65.0076 220.312 66.1356 219.256 67.5996 219.256C68.9916 219.256 69.9516 220.312 69.9516 221.848V229H73.3356V221.104C73.3356 218.296 71.4156 216.304 68.7276 216.304ZM80.9498 229.288C83.9978 229.288 85.9898 227.728 85.9898 225.28C85.9898 222.568 83.6138 221.848 81.4778 221.296C79.7978 220.84 79.2938 220.648 79.2938 219.976C79.2938 219.544 79.8938 219.232 80.7578 219.232C81.8138 219.232 83.1098 219.64 84.2378 220.336L85.6538 217.84C84.2858 216.928 82.5338 216.304 80.7578 216.304C77.8298 216.304 75.8858 217.984 75.9098 220.336C75.9338 222.784 77.9018 223.48 80.4458 224.104C81.7178 224.44 82.6298 224.68 82.6298 225.448C82.6298 226 81.9578 226.384 81.0218 226.384C79.3658 226.384 77.9738 225.784 76.8698 224.992L75.3578 227.416C76.8458 228.616 78.9578 229.288 80.9498 229.288ZM94.4367 229.288C98.1087 229.288 101.181 226.312 101.181 222.784C101.181 219.256 98.1087 216.304 94.4367 216.304C90.7407 216.304 87.6447 219.256 87.6447 222.784C87.6447 226.312 90.7407 229.288 94.4367 229.288ZM94.4367 226.336C92.5647 226.336 91.0047 224.704 91.0047 222.784C91.0047 220.864 92.5647 219.256 94.4367 219.256C96.2847 219.256 97.8447 220.864 97.8447 222.784C97.8447 224.704 96.2847 226.336 94.4367 226.336ZM103.552 229H107.056V212.224H103.552V229ZM115.658 216.304C113.93 216.304 112.226 216.784 110.474 217.672L111.65 220C112.634 219.496 113.714 219.112 114.866 219.112C116.906 219.112 117.722 220.264 117.722 221.584V221.824C116.666 221.416 115.562 221.2 114.554 221.2C111.674 221.2 109.394 222.88 109.394 225.328C109.394 227.704 111.434 229.288 114.074 229.288C115.418 229.288 116.834 228.76 117.722 227.752V229H121.106V221.584C121.106 218.344 118.898 216.304 115.658 216.304ZM114.866 226.864C113.666 226.864 112.778 226.24 112.778 225.232C112.778 224.224 113.786 223.48 115.058 223.48C116.018 223.48 116.93 223.648 117.722 223.936V225.088C117.482 226.24 116.21 226.864 114.866 226.864ZM135.099 227.104L132.771 225.136C132.123 225.856 131.115 226.336 130.155 226.336C128.307 226.336 126.771 224.704 126.771 222.76C126.771 220.864 128.307 219.256 130.131 219.256C131.091 219.256 132.075 219.712 132.699 220.408L135.027 218.416C133.827 217.12 132.171 216.304 130.155 216.304C126.483 216.304 123.363 219.256 123.363 222.784C123.363 225.976 125.883 228.712 129.099 229.216L128.523 230.536L129.051 231.04C129.267 230.896 129.531 230.824 129.771 230.824C130.275 230.824 130.563 231.088 130.563 231.472C130.563 231.904 130.107 232.192 129.555 232.192C129.051 232.192 128.523 232 128.091 231.64L127.467 233.032C127.995 233.416 128.859 233.728 129.747 233.728C131.235 233.728 132.339 232.936 132.339 231.664C132.339 230.704 131.595 230.032 130.539 230.032L130.851 229.264C132.579 229.072 134.019 228.28 135.099 227.104ZM141.336 214.024C142.128 214.024 143.136 215.248 144.48 215.248C146.064 215.248 146.904 214.192 147.144 212.08L145.416 211.84C145.248 212.704 144.936 213.088 144.408 213.088C143.64 213.088 142.584 211.864 141.24 211.864C139.68 211.864 138.84 212.944 138.576 215.032L140.328 215.296C140.496 214.408 140.808 214.024 141.336 214.024ZM142.752 216.304C141.024 216.304 139.32 216.784 137.568 217.672L138.744 220C139.728 219.496 140.808 219.112 141.96 219.112C144 219.112 144.816 220.264 144.816 221.584V221.824C143.76 221.416 142.656 221.2 141.648 221.2C138.768 221.2 136.488 222.88 136.488 225.328C136.488 227.704 138.528 229.288 141.168 229.288C142.512 229.288 143.928 228.76 144.816 227.752V229H148.2V221.584C148.2 218.344 145.992 216.304 142.752 216.304ZM141.96 226.864C140.76 226.864 139.872 226.24 139.872 225.232C139.872 224.224 140.88 223.48 142.152 223.48C143.112 223.48 144.024 223.648 144.816 223.936V225.088C144.576 226.24 143.304 226.864 141.96 226.864ZM157.249 229.288C160.921 229.288 163.993 226.312 163.993 222.784C163.993 219.256 160.921 216.304 157.249 216.304C153.553 216.304 150.457 219.256 150.457 222.784C150.457 226.312 153.553 229.288 157.249 229.288ZM157.249 226.336C155.377 226.336 153.817 224.704 153.817 222.784C153.817 220.864 155.377 219.256 157.249 219.256C159.097 219.256 160.657 220.864 160.657 222.784C160.657 224.704 159.097 226.336 157.249 226.336ZM168.068 232.504C169.796 230.848 170.612 229.336 170.612 227.92C170.612 226.168 169.676 224.92 168.332 224.92C167.132 224.92 166.172 225.928 166.172 227.128C166.172 228.304 167.132 229.288 168.284 229.288C168.068 230.056 167.564 230.872 166.82 231.544L168.068 232.504ZM186.435 229.288C190.467 229.288 192.843 227.2 192.843 224.056C192.843 221.008 190.491 219.952 186.939 219.16C184.395 218.584 183.411 218.2 183.411 217C183.411 216.016 184.323 215.224 185.835 215.224C187.419 215.224 189.075 215.872 190.539 217.048L192.387 214.504C190.707 213.064 188.619 212.224 185.931 212.224C182.331 212.224 179.835 214.312 179.835 217.36C179.835 220.552 182.307 221.536 185.787 222.328C188.307 222.904 189.267 223.264 189.267 224.44C189.267 225.472 188.355 226.288 186.579 226.288C184.491 226.288 182.715 225.472 181.155 224.128L179.115 226.552C181.035 228.328 183.579 229.288 186.435 229.288ZM199.414 214.024C200.206 214.024 201.214 215.248 202.558 215.248C204.142 215.248 204.982 214.192 205.222 212.08L203.494 211.84C203.326 212.704 203.014 213.088 202.486 213.088C201.718 213.088 200.662 211.864 199.318 211.864C197.758 211.864 196.918 212.944 196.654 215.032L198.406 215.296C198.574 214.408 198.886 214.024 199.414 214.024ZM200.83 216.304C199.102 216.304 197.398 216.784 195.646 217.672L196.822 220C197.806 219.496 198.886 219.112 200.038 219.112C202.078 219.112 202.894 220.264 202.894 221.584V221.824C201.838 221.416 200.734 221.2 199.726 221.2C196.846 221.2 194.566 222.88 194.566 225.328C194.566 227.704 196.606 229.288 199.246 229.288C200.59 229.288 202.006 228.76 202.894 227.752V229H206.278V221.584C206.278 218.344 204.07 216.304 200.83 216.304ZM200.038 226.864C198.838 226.864 197.95 226.24 197.95 225.232C197.95 224.224 198.958 223.48 200.23 223.48C201.19 223.48 202.102 223.648 202.894 223.936V225.088C202.654 226.24 201.382 226.864 200.038 226.864ZM215.327 229.288C218.999 229.288 222.071 226.312 222.071 222.784C222.071 219.256 218.999 216.304 215.327 216.304C211.631 216.304 208.535 219.256 208.535 222.784C208.535 226.312 211.631 229.288 215.327 229.288ZM215.327 226.336C213.455 226.336 211.895 224.704 211.895 222.784C211.895 220.864 213.455 219.256 215.327 219.256C217.175 219.256 218.735 220.864 218.735 222.784C218.735 224.704 217.175 226.336 215.327 226.336ZM67.3898 253H70.9178V247.648H74.8058C78.3818 247.648 81.0218 245.344 81.0218 242.08C81.0218 238.816 78.3818 236.512 74.8058 236.512H67.3898V253ZM70.9178 244.408V239.752H74.4218C76.1738 239.752 77.3738 240.664 77.3738 242.08C77.3738 243.496 76.1738 244.408 74.4218 244.408H70.9178ZM88.6816 240.304C86.9536 240.304 85.2496 240.784 83.4976 241.672L84.6736 244C85.6576 243.496 86.7376 243.112 87.8896 243.112C89.9296 243.112 90.7456 244.264 90.7456 245.584V245.824C89.6896 245.416 88.5856 245.2 87.5776 245.2C84.6976 245.2 82.4176 246.88 82.4176 249.328C82.4176 251.704 84.4576 253.288 87.0976 253.288C88.4416 253.288 89.8576 252.76 90.7456 251.752V253H94.1296V245.584C94.1296 242.344 91.9216 240.304 88.6816 240.304ZM87.8896 250.864C86.6896 250.864 85.8016 250.24 85.8016 249.232C85.8016 248.224 86.8096 247.48 88.0816 247.48C89.0416 247.48 89.9536 247.648 90.7456 247.936V249.088C90.5056 250.24 89.2336 250.864 87.8896 250.864ZM105.315 240.592V248.008L105.291 247.936C105.291 249.28 104.163 250.336 102.699 250.336C101.307 250.336 100.347 249.28 100.347 247.744V240.592H96.9629V248.488C96.9629 251.296 98.8829 253.288 101.571 253.288C103.179 253.288 104.571 252.568 105.315 251.44V253H108.819V240.592H105.315ZM111.825 253H115.329V236.224H111.825V253ZM124.484 253.288C128.156 253.288 131.228 250.312 131.228 246.784C131.228 243.256 128.156 240.304 124.484 240.304C120.788 240.304 117.692 243.256 117.692 246.784C117.692 250.312 120.788 253.288 124.484 253.288ZM124.484 250.336C122.612 250.336 121.052 248.704 121.052 246.784C121.052 244.864 122.612 243.256 124.484 243.256C126.332 243.256 127.892 244.864 127.892 246.784C127.892 248.704 126.332 250.336 124.484 250.336ZM139.846 247.888H146.422V244.912H139.846V247.888ZM162.083 253.288C166.115 253.288 168.491 251.2 168.491 248.056C168.491 245.008 166.139 243.952 162.587 243.16C160.043 242.584 159.059 242.2 159.059 241C159.059 240.016 159.971 239.224 161.483 239.224C163.067 239.224 164.723 239.872 166.187 241.048L168.035 238.504C166.355 237.064 164.267 236.224 161.579 236.224C157.979 236.224 155.483 238.312 155.483 241.36C155.483 244.552 157.955 245.536 161.435 246.328C163.955 246.904 164.915 247.264 164.915 248.44C164.915 249.472 164.003 250.288 162.227 250.288C160.139 250.288 158.363 249.472 156.803 248.128L154.763 250.552C156.683 252.328 159.227 253.288 162.083 253.288ZM171.03 253H174.558V247.648H178.446C182.022 247.648 184.662 245.344 184.662 242.08C184.662 238.816 182.022 236.512 178.446 236.512H171.03V253ZM174.558 244.408V239.752H178.062C179.814 239.752 181.014 240.664 181.014 242.08C181.014 243.496 179.814 244.408 178.062 244.408H174.558Z" fill="white"/>
</g>
<g filter="url(#filter1_d)">
<rect x="300" y="61" width="250" height="250" rx="20" fill="#FF601C"/>
<rect x="313" y="73" width="225" height="225" rx="20" fill="#36357E"/>
<path d="M387.024 105.288C391.056 105.288 393.432 103.2 393.432 100.056C393.432 97.008 391.08 95.952 387.528 95.16C384.984 94.584 384 94.2 384 93C384 92.016 384.912 91.224 386.424 91.224C388.008 91.224 389.664 91.872 391.128 93.048L392.976 90.504C391.296 89.064 389.208 88.224 386.52 88.224C382.92 88.224 380.424 90.312 380.424 93.36C380.424 96.552 382.896 97.536 386.376 98.328C388.896 98.904 389.856 99.264 389.856 100.44C389.856 101.472 388.944 102.288 387.168 102.288C385.08 102.288 383.304 101.472 381.744 100.128L379.704 102.552C381.624 104.328 384.168 105.288 387.024 105.288ZM401.42 92.304C399.692 92.304 397.988 92.784 396.236 93.672L397.412 96C398.396 95.496 399.476 95.112 400.628 95.112C402.668 95.112 403.484 96.264 403.484 97.584V97.824C402.428 97.416 401.324 97.2 400.316 97.2C397.436 97.2 395.156 98.88 395.156 101.328C395.156 103.704 397.196 105.288 399.836 105.288C401.18 105.288 402.596 104.76 403.484 103.752V105H406.868V97.584C406.868 94.344 404.66 92.304 401.42 92.304ZM400.628 102.864C399.428 102.864 398.54 102.24 398.54 101.232C398.54 100.224 399.548 99.48 400.82 99.48C401.78 99.48 402.692 99.648 403.484 99.936V101.088C403.244 102.24 401.972 102.864 400.628 102.864ZM416.997 92.304C415.389 92.304 413.997 93.024 413.253 94.152V92.592H409.749V105H413.253V97.584L413.277 97.656C413.277 96.312 414.405 95.256 415.869 95.256C417.261 95.256 418.221 96.312 418.221 97.848V105H421.605V97.104C421.605 94.296 419.685 92.304 416.997 92.304ZM431.091 101.928C430.851 102.168 430.371 102.336 429.891 102.336C429.243 102.336 428.715 101.76 428.715 100.944V95.424H431.403V92.592H428.715V89.184H425.355V92.592H423.651V95.424H425.355V101.496C425.355 103.728 426.891 105.288 429.075 105.288C430.083 105.288 431.211 104.856 431.931 104.208L431.091 101.928ZM440.222 105.288C443.894 105.288 446.966 102.312 446.966 98.784C446.966 95.256 443.894 92.304 440.222 92.304C436.526 92.304 433.43 95.256 433.43 98.784C433.43 102.312 436.526 105.288 440.222 105.288ZM440.222 102.336C438.35 102.336 436.79 100.704 436.79 98.784C436.79 96.864 438.35 95.256 440.222 95.256C442.07 95.256 443.63 96.864 443.63 98.784C443.63 100.704 442.07 102.336 440.222 102.336ZM453.993 105.288C457.041 105.288 459.033 103.728 459.033 101.28C459.033 98.568 456.657 97.848 454.521 97.296C452.841 96.84 452.337 96.648 452.337 95.976C452.337 95.544 452.937 95.232 453.801 95.232C454.857 95.232 456.153 95.64 457.281 96.336L458.697 93.84C457.329 92.928 455.577 92.304 453.801 92.304C450.873 92.304 448.929 93.984 448.953 96.336C448.977 98.784 450.945 99.48 453.489 100.104C454.761 100.44 455.673 100.68 455.673 101.448C455.673 102 455.001 102.384 454.065 102.384C452.409 102.384 451.017 101.784 449.913 100.992L448.401 103.416C449.889 104.616 452.001 105.288 453.993 105.288ZM396.398 115.704V112.512H383.702V129H387.254V122.472H395.534V119.28H387.254V115.704H396.398ZM398.961 129H402.513V112.512H398.961V129ZM409.236 125.808V112.512H405.684V129H417.444V125.808H409.236ZM419.774 129H423.326V112.512H419.774V129ZM438.712 129H442.696L435.976 112.512H432.016L425.296 129H429.256L430.312 126.408H437.656L438.712 129ZM431.536 123.408L433.984 117.384L436.432 123.408H431.536ZM448.072 125.808V112.512H444.52V129H456.28V125.808H448.072ZM367.695 153H371.223V147.648H375.111C378.687 147.648 381.327 145.344 381.327 142.08C381.327 138.816 378.687 136.512 375.111 136.512H367.695V153ZM371.223 144.408V139.752H374.727C376.479 139.752 377.679 140.664 377.679 142.08C377.679 143.496 376.479 144.408 374.727 144.408H371.223ZM386.946 142.896V140.592H383.442V153H386.946V147.072C386.946 144.744 388.602 143.256 391.194 143.256V140.304C389.298 140.304 387.762 141.288 386.946 142.896ZM398.76 140.304C397.032 140.304 395.328 140.784 393.576 141.672L394.752 144C395.736 143.496 396.816 143.112 397.968 143.112C400.008 143.112 400.824 144.264 400.824 145.584V145.824C399.768 145.416 398.664 145.2 397.656 145.2C394.776 145.2 392.496 146.88 392.496 149.328C392.496 151.704 394.536 153.288 397.176 153.288C398.52 153.288 399.936 152.76 400.824 151.752V153H404.208V145.584C404.208 142.344 402 140.304 398.76 140.304ZM397.968 150.864C396.768 150.864 395.88 150.24 395.88 149.232C395.88 148.224 396.888 147.48 398.16 147.48C399.12 147.48 400.032 147.648 400.824 147.936V149.088C400.584 150.24 399.312 150.864 397.968 150.864ZM418.201 151.104L415.873 149.136C415.225 149.856 414.217 150.336 413.257 150.336C411.409 150.336 409.873 148.704 409.873 146.76C409.873 144.864 411.409 143.256 413.233 143.256C414.193 143.256 415.177 143.712 415.801 144.408L418.129 142.416C416.929 141.12 415.273 140.304 413.257 140.304C409.585 140.304 406.465 143.256 406.465 146.784C406.465 149.976 408.985 152.712 412.201 153.216L411.625 154.536L412.153 155.04C412.369 154.896 412.633 154.824 412.873 154.824C413.377 154.824 413.665 155.088 413.665 155.472C413.665 155.904 413.209 156.192 412.657 156.192C412.153 156.192 411.625 156 411.193 155.64L410.569 157.032C411.097 157.416 411.961 157.728 412.849 157.728C414.337 157.728 415.441 156.936 415.441 155.664C415.441 154.704 414.697 154.032 413.641 154.032L413.953 153.264C415.681 153.072 417.121 152.28 418.201 151.104ZM425.853 140.304C424.125 140.304 422.421 140.784 420.669 141.672L421.845 144C422.829 143.496 423.909 143.112 425.061 143.112C427.101 143.112 427.917 144.264 427.917 145.584V145.824C426.861 145.416 425.757 145.2 424.749 145.2C421.869 145.2 419.589 146.88 419.589 149.328C419.589 151.704 421.629 153.288 424.269 153.288C425.613 153.288 427.029 152.76 427.917 151.752V153H431.301V145.584C431.301 142.344 429.093 140.304 425.853 140.304ZM425.061 150.864C423.861 150.864 422.973 150.24 422.973 149.232C422.973 148.224 423.981 147.48 425.253 147.48C426.213 147.48 427.125 147.648 427.917 147.936V149.088C427.677 150.24 426.405 150.864 425.061 150.864ZM441.198 153H447.102C452.646 153 456.582 149.568 456.582 144.744C456.582 139.92 452.646 136.512 447.102 136.512H441.198V153ZM444.726 149.784V139.728H447.558C450.702 139.728 452.934 141.816 452.934 144.744C452.934 147.696 450.702 149.784 447.558 149.784H444.726ZM465.312 153.288C468.984 153.288 472.056 150.312 472.056 146.784C472.056 143.256 468.984 140.304 465.312 140.304C461.616 140.304 458.52 143.256 458.52 146.784C458.52 150.312 461.616 153.288 465.312 153.288ZM465.312 150.336C463.44 150.336 461.88 148.704 461.88 146.784C461.88 144.864 463.44 143.256 465.312 143.256C467.16 143.256 468.72 144.864 468.72 146.784C468.72 148.704 467.16 150.336 465.312 150.336ZM479.083 153.288C482.131 153.288 484.123 151.728 484.123 149.28C484.123 146.568 481.747 145.848 479.611 145.296C477.931 144.84 477.427 144.648 477.427 143.976C477.427 143.544 478.027 143.232 478.891 143.232C479.947 143.232 481.243 143.64 482.371 144.336L483.787 141.84C482.419 140.928 480.667 140.304 478.891 140.304C475.963 140.304 474.019 141.984 474.043 144.336C474.067 146.784 476.035 147.48 478.579 148.104C479.851 148.44 480.763 148.68 480.763 149.448C480.763 150 480.091 150.384 479.155 150.384C477.499 150.384 476.107 149.784 475.003 148.992L473.491 151.416C474.979 152.616 477.091 153.288 479.083 153.288ZM342.023 163.704V160.512H329.327V177H342.023V173.808H332.879V170.184H341.159V166.992H332.879V163.704H342.023ZM356.294 177L351.734 170.616L356.078 164.592H352.382L349.886 168.048L347.414 164.592H343.622L347.99 170.688L343.43 177H347.126L349.838 173.256L352.526 177H356.294ZM365.856 164.304C364.128 164.304 362.688 165.048 361.704 166.32V164.592H358.2V181.128H361.704V175.248C362.688 176.544 364.128 177.288 365.856 177.288C369.168 177.288 371.568 174.6 371.568 170.784C371.568 166.992 369.168 164.304 365.856 164.304ZM364.848 174.336C363.144 174.336 361.896 173.088 361.704 171.264V170.304C361.896 168.504 363.144 167.256 364.848 167.256C366.792 167.256 368.16 168.72 368.16 170.784C368.16 172.872 366.792 174.336 364.848 174.336ZM379.9 174.192C378.436 174.192 377.356 173.28 376.948 171.936H385.9C385.9 167.256 383.62 164.304 379.732 164.304C376.108 164.304 373.348 167.016 373.348 170.76C373.348 174.576 376.228 177.288 379.924 177.288C381.748 177.288 383.884 176.52 384.988 175.368L382.756 173.088C382.084 173.736 380.884 174.192 379.9 174.192ZM379.876 167.4C381.292 167.4 382.204 168.192 382.54 169.416H376.996C377.452 168.168 378.556 167.4 379.876 167.4ZM397.534 160.224V166.368C396.55 165.072 395.11 164.304 393.358 164.304C390.046 164.304 387.646 166.992 387.646 170.784C387.646 174.6 390.046 177.288 393.358 177.288C395.11 177.288 396.55 176.52 397.534 175.224V177H401.038V160.224H397.534ZM394.366 174.336C392.422 174.336 391.054 172.872 391.054 170.784C391.054 168.72 392.422 167.256 394.366 167.256C396.214 167.256 397.534 168.72 397.534 170.784C397.534 172.872 396.214 174.336 394.366 174.336ZM405.866 162.888C406.898 162.888 407.738 162.024 407.738 160.968C407.738 159.984 406.898 159.096 405.866 159.096C404.786 159.096 403.946 159.984 403.946 160.968C403.946 162.024 404.786 162.888 405.866 162.888ZM404.09 177H407.594V164.592H404.09V177ZM416.725 177.288C418.789 177.288 420.469 176.448 421.693 175.104L419.365 173.136C418.717 173.856 417.709 174.336 416.749 174.336C414.901 174.336 413.365 172.704 413.365 170.76C413.365 168.864 414.901 167.256 416.725 167.256C417.685 167.256 418.669 167.712 419.293 168.408L421.621 166.416C420.421 165.12 418.765 164.304 416.749 164.304C413.077 164.304 409.957 167.256 409.957 170.784C409.957 174.312 413.053 177.288 416.725 177.288ZM425.554 162.888C426.586 162.888 427.426 162.024 427.426 160.968C427.426 159.984 426.586 159.096 425.554 159.096C424.474 159.096 423.634 159.984 423.634 160.968C423.634 162.024 424.474 162.888 425.554 162.888ZM423.778 177H427.282V164.592H423.778V177ZM436.437 177.288C440.109 177.288 443.181 174.312 443.181 170.784C443.181 167.256 440.109 164.304 436.437 164.304C432.741 164.304 429.645 167.256 429.645 170.784C429.645 174.312 432.741 177.288 436.437 177.288ZM436.437 174.336C434.565 174.336 433.005 172.704 433.005 170.784C433.005 168.864 434.565 167.256 436.437 167.256C438.285 167.256 439.845 168.864 439.845 170.784C439.845 172.704 438.285 174.336 436.437 174.336ZM452.728 164.304C451.12 164.304 449.728 165.024 448.984 166.152V164.592H445.48V177H448.984V169.584L449.008 169.656C449.008 168.312 450.136 167.256 451.6 167.256C452.992 167.256 453.952 168.312 453.952 169.848V177H457.336V169.104C457.336 166.296 455.416 164.304 452.728 164.304ZM469.414 160.032L466.27 159.456L463.486 163.2H465.862L469.414 160.032ZM465.838 164.304C464.11 164.304 462.406 164.784 460.654 165.672L461.83 168C462.814 167.496 463.894 167.112 465.046 167.112C467.086 167.112 467.902 168.264 467.902 169.584V169.824C466.846 169.416 465.742 169.2 464.734 169.2C461.854 169.2 459.574 170.88 459.574 173.328C459.574 175.704 461.614 177.288 464.254 177.288C465.598 177.288 467.014 176.76 467.902 175.752V177H471.286V169.584C471.286 166.344 469.078 164.304 465.838 164.304ZM465.046 174.864C463.846 174.864 462.958 174.24 462.958 173.232C462.958 172.224 463.966 171.48 465.238 171.48C466.198 171.48 467.11 171.648 467.902 171.936V173.088C467.662 174.24 466.39 174.864 465.046 174.864ZM477.743 166.896V164.592H474.239V177H477.743V171.072C477.743 168.744 479.399 167.256 481.991 167.256V164.304C480.095 164.304 478.559 165.288 477.743 166.896ZM485.765 162.888C486.797 162.888 487.637 162.024 487.637 160.968C487.637 159.984 486.797 159.096 485.765 159.096C484.685 159.096 483.845 159.984 483.845 160.968C483.845 162.024 484.685 162.888 485.765 162.888ZM483.989 177H487.493V164.592H483.989V177ZM496.648 177.288C500.32 177.288 503.392 174.312 503.392 170.784C503.392 167.256 500.32 164.304 496.648 164.304C492.952 164.304 489.856 167.256 489.856 170.784C489.856 174.312 492.952 177.288 496.648 177.288ZM496.648 174.336C494.776 174.336 493.216 172.704 493.216 170.784C493.216 168.864 494.776 167.256 496.648 167.256C498.496 167.256 500.056 168.864 500.056 170.784C500.056 172.704 498.496 174.336 496.648 174.336ZM510.419 177.288C513.467 177.288 515.459 175.728 515.459 173.28C515.459 170.568 513.083 169.848 510.947 169.296C509.267 168.84 508.763 168.648 508.763 167.976C508.763 167.544 509.363 167.232 510.227 167.232C511.283 167.232 512.579 167.64 513.707 168.336L515.123 165.84C513.755 164.928 512.003 164.304 510.227 164.304C507.299 164.304 505.355 165.984 505.379 168.336C505.403 170.784 507.371 171.48 509.915 172.104C511.187 172.44 512.099 172.68 512.099 173.448C512.099 174 511.427 174.384 510.491 174.384C508.835 174.384 507.443 173.784 506.339 172.992L504.827 175.416C506.315 176.616 508.427 177.288 510.419 177.288ZM519.513 180.504C521.241 178.848 522.057 177.336 522.057 175.92C522.057 174.168 521.121 172.92 519.777 172.92C518.577 172.92 517.617 173.928 517.617 175.128C517.617 176.304 518.577 177.288 519.729 177.288C519.513 178.056 519.009 178.872 518.265 179.544L519.513 180.504ZM411.369 201H414.921V184.512H412.089L407.145 187.824L408.561 190.32L411.369 188.568V201ZM424.162 184.224C420.562 184.224 417.85 186.552 417.85 189.936C417.85 193.2 420.37 195.168 423.418 195.168C424.978 195.168 426.466 194.592 427.498 193.608C427.186 196.392 425.722 198.168 423.586 198.168C422.218 198.168 421.234 197.664 420.226 196.824L418.546 199.512C419.89 200.592 421.546 201.288 423.61 201.288C428.17 201.288 431.17 197.616 431.17 192.48C431.17 187.68 428.986 184.224 424.162 184.224ZM424.45 192.288C422.842 192.288 421.498 191.352 421.498 189.768C421.498 188.448 422.602 187.224 424.354 187.224C426.202 187.224 427.09 188.352 427.402 190.368C426.922 191.544 425.818 192.288 424.45 192.288ZM371.091 225H383.547V221.808H376.563L379.563 219.48C382.443 217.392 383.403 215.688 383.403 213.48C383.403 210.384 380.859 208.224 377.355 208.224C374.691 208.224 372.603 209.376 370.971 211.44L373.227 213.624C374.427 212.256 375.651 211.44 377.259 211.44C378.603 211.44 379.755 212.256 379.755 213.624C379.755 214.776 379.131 215.856 377.163 217.416L371.091 222.12V225ZM393.347 211.92C393.347 213.28 392.987 214.336 392.267 215.088C391.547 215.824 390.571 216.192 389.339 216.192C388.187 216.192 387.235 215.824 386.483 215.088C385.747 214.336 385.379 213.28 385.379 211.92C385.379 210.56 385.739 209.512 386.459 208.776C387.179 208.04 388.155 207.672 389.387 207.672C390.523 207.672 391.467 208.04 392.219 208.776C392.971 209.512 393.347 210.56 393.347 211.92ZM387.755 211.92C387.755 212.704 387.883 213.296 388.139 213.696C388.395 214.08 388.803 214.272 389.363 214.272C390.419 214.272 390.947 213.488 390.947 211.92C390.947 210.368 390.419 209.592 389.363 209.592C388.803 209.592 388.395 209.784 388.139 210.168C387.883 210.552 387.755 211.136 387.755 211.92ZM407.795 212.304C406.067 212.304 404.363 212.784 402.611 213.672L403.787 216C404.771 215.496 405.851 215.112 407.003 215.112C409.043 215.112 409.859 216.264 409.859 217.584V217.824C408.803 217.416 407.699 217.2 406.691 217.2C403.811 217.2 401.531 218.88 401.531 221.328C401.531 223.704 403.571 225.288 406.211 225.288C407.555 225.288 408.971 224.76 409.859 223.752V225H413.243V217.584C413.243 214.344 411.035 212.304 407.795 212.304ZM407.003 222.864C405.803 222.864 404.915 222.24 404.915 221.232C404.915 220.224 405.923 219.48 407.195 219.48C408.155 219.48 409.067 219.648 409.859 219.936V221.088C409.619 222.24 408.347 222.864 407.003 222.864ZM423.372 212.304C421.764 212.304 420.372 213.024 419.628 214.152V212.592H416.124V225H419.628V217.584L419.652 217.656C419.652 216.312 420.78 215.256 422.244 215.256C423.636 215.256 424.596 216.312 424.596 217.848V225H427.98V217.104C427.98 214.296 426.06 212.304 423.372 212.304ZM440.202 208.224V214.368C439.218 213.072 437.778 212.304 436.026 212.304C432.714 212.304 430.314 214.992 430.314 218.784C430.314 222.6 432.714 225.288 436.026 225.288C437.778 225.288 439.218 224.52 440.202 223.224V225H443.706V208.224H440.202ZM437.034 222.336C435.09 222.336 433.722 220.872 433.722 218.784C433.722 216.72 435.09 215.256 437.034 215.256C438.882 215.256 440.202 216.72 440.202 218.784C440.202 220.872 438.882 222.336 437.034 222.336ZM452.326 212.304C450.598 212.304 448.894 212.784 447.142 213.672L448.318 216C449.302 215.496 450.382 215.112 451.534 215.112C453.574 215.112 454.39 216.264 454.39 217.584V217.824C453.334 217.416 452.23 217.2 451.222 217.2C448.342 217.2 446.062 218.88 446.062 221.328C446.062 223.704 448.102 225.288 450.742 225.288C452.086 225.288 453.502 224.76 454.39 223.752V225H457.774V217.584C457.774 214.344 455.566 212.304 452.326 212.304ZM451.534 222.864C450.334 222.864 449.446 222.24 449.446 221.232C449.446 220.224 450.454 219.48 451.726 219.48C452.686 219.48 453.598 219.648 454.39 219.936V221.088C454.15 222.24 452.878 222.864 451.534 222.864ZM464.231 214.896V212.592H460.727V225H464.231V219.072C464.231 216.744 465.887 215.256 468.479 215.256V212.304C466.583 212.304 465.047 213.288 464.231 214.896ZM335.458 242.496H339.298V245.016C338.362 245.688 337.21 246.072 336.082 246.072C333.274 246.072 330.898 243.624 330.898 240.744C330.898 237.888 333.274 235.44 336.082 235.44C337.594 235.44 339.202 236.16 340.186 237.288L342.754 234.984C341.098 233.256 338.554 232.224 336.082 232.224C331.306 232.224 327.25 236.112 327.25 240.744C327.25 245.376 331.306 249.288 336.082 249.288C338.554 249.288 341.098 248.256 342.754 246.528V239.736H335.458V242.496ZM351.734 249.288C355.406 249.288 358.478 246.312 358.478 242.784C358.478 239.256 355.406 236.304 351.734 236.304C348.038 236.304 344.942 239.256 344.942 242.784C344.942 246.312 348.038 249.288 351.734 249.288ZM351.734 246.336C349.862 246.336 348.302 244.704 348.302 242.784C348.302 240.864 349.862 239.256 351.734 239.256C353.582 239.256 355.142 240.864 355.142 242.784C355.142 244.704 353.582 246.336 351.734 246.336ZM368.025 236.304C366.417 236.304 365.025 237.024 364.281 238.152V236.592H360.777V249H364.281V241.584L364.305 241.656C364.305 240.312 365.433 239.256 366.897 239.256C368.289 239.256 369.249 240.312 369.249 241.848V249H372.633V241.104C372.633 238.296 370.713 236.304 368.025 236.304ZM375.039 249H385.887V246.024H379.599L385.839 239.064V236.592H375.207V239.568H381.279L375.039 246.528V249ZM393.908 236.304C392.18 236.304 390.476 236.784 388.724 237.672L389.9 240C390.884 239.496 391.964 239.112 393.116 239.112C395.156 239.112 395.972 240.264 395.972 241.584V241.824C394.916 241.416 393.812 241.2 392.804 241.2C389.924 241.2 387.644 242.88 387.644 245.328C387.644 247.704 389.684 249.288 392.324 249.288C393.668 249.288 395.084 248.76 395.972 247.752V249H399.356V241.584C399.356 238.344 397.148 236.304 393.908 236.304ZM393.116 246.864C391.916 246.864 391.028 246.24 391.028 245.232C391.028 244.224 392.036 243.48 393.308 243.48C394.268 243.48 395.18 243.648 395.972 243.936V245.088C395.732 246.24 394.46 246.864 393.116 246.864ZM411.285 236.592V238.272C410.445 237.096 408.861 236.304 407.181 236.304C404.061 236.304 401.685 238.728 401.685 242.184C401.685 245.64 404.061 248.088 407.181 248.088C408.813 248.088 410.301 247.368 411.285 246.168V247.536C411.285 249.144 409.845 250.176 407.589 250.176C406.149 250.176 404.709 249.72 403.893 249L402.669 251.472C403.893 252.432 405.957 253.128 408.141 253.128C412.053 253.128 414.813 250.872 414.813 247.68V236.592H411.285ZM408.285 245.136C406.533 245.136 405.285 243.912 405.285 242.184C405.285 240.456 406.533 239.256 408.285 239.256C410.037 239.256 411.285 240.456 411.285 242.184C411.285 243.912 410.037 245.136 408.285 245.136ZM423.439 236.304C421.711 236.304 420.007 236.784 418.255 237.672L419.431 240C420.415 239.496 421.495 239.112 422.647 239.112C424.687 239.112 425.503 240.264 425.503 241.584V241.824C424.447 241.416 423.343 241.2 422.335 241.2C419.455 241.2 417.175 242.88 417.175 245.328C417.175 247.704 419.215 249.288 421.855 249.288C423.199 249.288 424.615 248.76 425.503 247.752V249H428.887V241.584C428.887 238.344 426.679 236.304 423.439 236.304ZM422.647 246.864C421.447 246.864 420.559 246.24 420.559 245.232C420.559 244.224 421.567 243.48 422.839 243.48C423.799 243.48 424.711 243.648 425.503 243.936V245.088C425.263 246.24 423.991 246.864 422.647 246.864ZM433.545 252.504C435.273 250.848 436.089 249.336 436.089 247.92C436.089 246.168 435.153 244.92 433.809 244.92C432.609 244.92 431.649 245.928 431.649 247.128C431.649 248.304 432.609 249.288 433.761 249.288C433.545 250.056 433.041 250.872 432.297 251.544L433.545 252.504ZM451.911 249.288C455.943 249.288 458.319 247.2 458.319 244.056C458.319 241.008 455.967 239.952 452.415 239.16C449.871 238.584 448.887 238.2 448.887 237C448.887 236.016 449.799 235.224 451.311 235.224C452.895 235.224 454.551 235.872 456.015 237.048L457.863 234.504C456.183 233.064 454.095 232.224 451.407 232.224C447.807 232.224 445.311 234.312 445.311 237.36C445.311 240.552 447.783 241.536 451.263 242.328C453.783 242.904 454.743 243.264 454.743 244.44C454.743 245.472 453.831 246.288 452.055 246.288C449.967 246.288 448.191 245.472 446.631 244.128L444.591 246.552C446.511 248.328 449.055 249.288 451.911 249.288ZM466.307 236.304C464.579 236.304 462.875 236.784 461.123 237.672L462.299 240C463.283 239.496 464.363 239.112 465.515 239.112C467.555 239.112 468.371 240.264 468.371 241.584V241.824C467.315 241.416 466.211 241.2 465.203 241.2C462.323 241.2 460.043 242.88 460.043 245.328C460.043 247.704 462.083 249.288 464.723 249.288C466.067 249.288 467.483 248.76 468.371 247.752V249H471.755V241.584C471.755 238.344 469.547 236.304 466.307 236.304ZM465.515 246.864C464.315 246.864 463.427 246.24 463.427 245.232C463.427 244.224 464.435 243.48 465.707 243.48C466.667 243.48 467.579 243.648 468.371 243.936V245.088C468.131 246.24 466.859 246.864 465.515 246.864ZM481.884 236.304C480.276 236.304 478.884 237.024 478.14 238.152V236.592H474.636V249H478.14V241.584L478.164 241.656C478.164 240.312 479.292 239.256 480.756 239.256C482.148 239.256 483.108 240.312 483.108 241.848V249H486.492V241.104C486.492 238.296 484.572 236.304 481.884 236.304ZM495.978 245.928C495.738 246.168 495.258 246.336 494.778 246.336C494.13 246.336 493.602 245.76 493.602 244.944V239.424H496.29V236.592H493.602V233.184H490.242V236.592H488.538V239.424H490.242V245.496C490.242 247.728 491.778 249.288 493.962 249.288C494.97 249.288 496.098 248.856 496.818 248.208L495.978 245.928ZM505.109 249.288C508.781 249.288 511.853 246.312 511.853 242.784C511.853 239.256 508.781 236.304 505.109 236.304C501.413 236.304 498.317 239.256 498.317 242.784C498.317 246.312 501.413 249.288 505.109 249.288ZM505.109 246.336C503.237 246.336 501.677 244.704 501.677 242.784C501.677 240.864 503.237 239.256 505.109 239.256C506.957 239.256 508.517 240.864 508.517 242.784C508.517 244.704 506.957 246.336 505.109 246.336ZM518.88 249.288C521.928 249.288 523.92 247.728 523.92 245.28C523.92 242.568 521.544 241.848 519.408 241.296C517.728 240.84 517.224 240.648 517.224 239.976C517.224 239.544 517.824 239.232 518.688 239.232C519.743 239.232 521.04 239.64 522.168 240.336L523.584 237.84C522.216 236.928 520.464 236.304 518.688 236.304C515.76 236.304 513.816 237.984 513.84 240.336C513.864 242.784 515.832 243.48 518.376 244.104C519.648 244.44 520.56 244.68 520.56 245.448C520.56 246 519.888 246.384 518.952 246.384C517.296 246.384 515.904 245.784 514.8 244.992L513.288 247.416C514.776 248.616 516.888 249.288 518.88 249.288ZM403.342 267.888H409.918V264.912H403.342V267.888ZM425.579 273.288C429.611 273.288 431.987 271.2 431.987 268.056C431.987 265.008 429.635 263.952 426.083 263.16C423.539 262.584 422.555 262.2 422.555 261C422.555 260.016 423.467 259.224 424.979 259.224C426.563 259.224 428.219 259.872 429.683 261.048L431.531 258.504C429.851 257.064 427.763 256.224 425.075 256.224C421.475 256.224 418.979 258.312 418.979 261.36C418.979 264.552 421.451 265.536 424.931 266.328C427.451 266.904 428.411 267.264 428.411 268.44C428.411 269.472 427.499 270.288 425.723 270.288C423.635 270.288 421.859 269.472 420.299 268.128L418.259 270.552C420.179 272.328 422.723 273.288 425.579 273.288ZM434.527 273H438.055V267.648H441.943C445.519 267.648 448.159 265.344 448.159 262.08C448.159 258.816 445.519 256.512 441.943 256.512H434.527V273ZM438.055 264.408V259.752H441.559C443.311 259.752 444.511 260.664 444.511 262.08C444.511 263.496 443.311 264.408 441.559 264.408H438.055Z" fill="white"/>
</g>
<path d="M146.664 33.492C154.823 33.492 161.629 26.809 161.629 18.896C161.629 10.983 154.823 4.341 146.664 4.341C138.587 4.341 131.699 10.983 131.699 18.896C131.699 26.809 138.587 33.492 146.664 33.492ZM146.664 27.998C141.949 27.998 137.931 23.816 137.931 18.896C137.931 14.017 141.949 9.835 146.664 9.835C151.42 9.835 155.438 14.017 155.438 18.896C155.438 23.816 151.42 27.998 146.664 27.998ZM178.174 11.311C175.427 11.311 173.049 12.541 171.778 14.468V11.803H165.792V33H171.778V20.331L171.819 20.454C171.819 18.158 173.746 16.354 176.247 16.354C178.625 16.354 180.265 18.158 180.265 20.782V33H186.046V19.511C186.046 14.714 182.766 11.311 178.174 11.311ZM206.925 4.341V14.837C205.244 12.623 202.784 11.311 199.791 11.311C194.133 11.311 190.033 15.903 190.033 22.381C190.033 28.9 194.133 33.492 199.791 33.492C202.784 33.492 205.244 32.18 206.925 29.966V33H212.911V4.341H206.925ZM201.513 28.449C198.192 28.449 195.855 25.948 195.855 22.381C195.855 18.855 198.192 16.354 201.513 16.354C204.67 16.354 206.925 18.855 206.925 22.381C206.925 25.948 204.67 28.449 201.513 28.449ZM228.17 28.203C225.669 28.203 223.824 26.645 223.127 24.349H238.42C238.42 16.354 234.525 11.311 227.883 11.311C221.692 11.311 216.977 15.944 216.977 22.34C216.977 28.859 221.897 33.492 228.211 33.492C231.327 33.492 234.976 32.18 236.862 30.212L233.049 26.317C231.901 27.424 229.851 28.203 228.17 28.203ZM228.129 16.6C230.548 16.6 232.106 17.953 232.68 20.044H223.209C223.988 17.912 225.874 16.6 228.129 16.6ZM263.924 28.203C261.423 28.203 259.578 26.645 258.881 24.349H274.174C274.174 16.354 270.279 11.311 263.637 11.311C257.446 11.311 252.731 15.944 252.731 22.34C252.731 28.859 257.651 33.492 263.965 33.492C267.081 33.492 270.73 32.18 272.616 30.212L268.803 26.317C267.655 27.424 265.605 28.203 263.924 28.203ZM263.883 16.6C266.302 16.6 267.86 17.953 268.434 20.044H258.963C259.742 17.912 261.628 16.6 263.883 16.6ZM286.178 33.492C291.385 33.492 294.788 30.827 294.788 26.645C294.788 22.012 290.729 20.782 287.08 19.839C284.21 19.06 283.349 18.732 283.349 17.584C283.349 16.846 284.374 16.313 285.85 16.313C287.654 16.313 289.868 17.01 291.795 18.199L294.214 13.935C291.877 12.377 288.884 11.311 285.85 11.311C280.848 11.311 277.527 14.181 277.568 18.199C277.609 22.381 280.971 23.57 285.317 24.636C287.49 25.21 289.048 25.62 289.048 26.932C289.048 27.875 287.9 28.531 286.301 28.531C283.472 28.531 281.094 27.506 279.208 26.153L276.625 30.294C279.167 32.344 282.775 33.492 286.178 33.492ZM309.956 27.752C309.546 28.162 308.726 28.449 307.906 28.449C306.799 28.449 305.897 27.465 305.897 26.071V16.641H310.489V11.803H305.897V5.981H300.157V11.803H297.246V16.641H300.157V27.014C300.157 30.827 302.781 33.492 306.512 33.492C308.234 33.492 310.161 32.754 311.391 31.647L309.956 27.752ZM324.611 11.311C321.659 11.311 318.748 12.131 315.755 13.648L317.764 17.625C319.445 16.764 321.29 16.108 323.258 16.108C326.743 16.108 328.137 18.076 328.137 20.331V20.741C326.333 20.044 324.447 19.675 322.725 19.675C317.805 19.675 313.91 22.545 313.91 26.727C313.91 30.786 317.395 33.492 321.905 33.492C324.201 33.492 326.62 32.59 328.137 30.868V33H333.918V20.331C333.918 14.796 330.146 11.311 324.611 11.311ZM323.258 29.351C321.208 29.351 319.691 28.285 319.691 26.563C319.691 24.841 321.413 23.57 323.586 23.57C325.226 23.57 326.784 23.857 328.137 24.349V26.317C327.727 28.285 325.554 29.351 323.258 29.351ZM364.178 11.311C361.021 11.311 358.397 12.828 357.29 15.165C355.978 12.787 353.477 11.311 350.566 11.311C347.942 11.311 345.851 12.582 344.826 14.591V11.803H338.84V33H344.826V20.208C344.826 17.953 346.507 16.354 348.926 16.354C351.099 16.354 352.657 18.076 352.657 20.536V33.041H358.397V20.208C358.397 17.953 360.119 16.354 362.497 16.354C364.711 16.354 366.269 18.076 366.269 20.536V33.041H372.009V19.511C372.009 14.714 368.606 11.311 364.178 11.311ZM387.455 33.492C393.728 33.492 398.976 28.408 398.976 22.381C398.976 16.354 393.728 11.311 387.455 11.311C381.141 11.311 375.852 16.354 375.852 22.381C375.852 28.408 381.141 33.492 387.455 33.492ZM387.455 28.449C384.257 28.449 381.592 25.661 381.592 22.381C381.592 19.101 384.257 16.354 387.455 16.354C390.612 16.354 393.277 19.101 393.277 22.381C393.277 25.661 390.612 28.449 387.455 28.449ZM410.98 33.492C416.187 33.492 419.59 30.827 419.59 26.645C419.59 22.012 415.531 20.782 411.882 19.839C409.012 19.06 408.151 18.732 408.151 17.584C408.151 16.846 409.176 16.313 410.652 16.313C412.456 16.313 414.67 17.01 416.597 18.199L419.016 13.935C416.679 12.377 413.686 11.311 410.652 11.311C405.65 11.311 402.329 14.181 402.37 18.199C402.411 22.381 405.773 23.57 410.119 24.636C412.292 25.21 413.85 25.62 413.85 26.932C413.85 27.875 412.702 28.531 411.103 28.531C408.274 28.531 405.896 27.506 404.01 26.153L401.427 30.294C403.969 32.344 407.577 33.492 410.98 33.492Z" fill="white"/>
<defs>
<filter id="filter0_d" x="0" y="61" width="260" height="258" filterUnits="userSpaceOnUse" color-interpolation-filters="sRGB">
<feFlood flood-opacity="0" result="BackgroundImageFix"/>
<feColorMatrix in="SourceAlpha" type="matrix" values="0 0 0 0 0 0 0 0 0 0 0 0 0 0 0 0 0 0 127 0" result="hardAlpha"/>
<feOffset dx="6" dy="4"/>
<feGaussianBlur stdDeviation="2"/>
<feComposite in2="hardAlpha" operator="out"/>
<feColorMatrix type="matrix" values="0 0 0 0 0 0 0 0 0 0 0 0 0 0 0 0 0 0 0.25 0"/>
<feBlend mode="normal" in2="BackgroundImageFix" result="effect1_dropShadow"/>
<feBlend mode="normal" in="SourceGraphic" in2="effect1_dropShadow" result="shape"/>
</filter>
<filter id="filter1_d" x="300" y="61" width="260" height="258" filterUnits="userSpaceOnUse" color-interpolation-filters="sRGB">
<feFlood flood-opacity="0" result="BackgroundImageFix"/>
<feColorMatrix in="SourceAlpha" type="matrix" values="0 0 0 0 0 0 0 0 0 0 0 0 0 0 0 0 0 0 127 0" result="hardAlpha"/>
<feOffset dx="6" dy="4"/>
<feGaussianBlur stdDeviation="2"/>
<feComposite in2="hardAlpha" operator="out"/>
<feColorMatrix type="matrix" values="0 0 0 0 0 0 0 0 0 0 0 0 0 0 0 0 0 0 0.25 0"/>
<feBlend mode="normal" in2="BackgroundImageFix" result="effect1_dropShadow"/>
<feBlend mode="normal" in="SourceGraphic" in2="effect1_dropShadow" result="shape"/>
</filter>
</defs>
</svg>
