<svg width="1440" height="100" viewBox="0 0 1440 100" fill="none" xmlns="http://www.w3.org/2000/svg">
<path d="M1441 97.146C1297.17 97.146 1297.17 71.8839 1153.32 71.8839C1009.47 71.8839 1009.4 97.146 865.506 97.146C721.614 97.146 721.655 71.8839 577.804 71.8839C433.844 71.8839 433.844 97.146 289.905 97.146C145.965 97.146 145.945 71.8839 2.00537 71.8839" stroke="#36357E" stroke-width="3.863" stroke-linecap="round" stroke-linejoin="round"/>
<path d="M1441 62.2026C1297.17 62.2026 1297.17 36.9435 1153.32 36.9435C1009.47 36.9435 1009.4 62.2026 865.507 62.2026C721.616 62.2026 721.657 36.9435 577.806 36.9435C433.846 36.9435 433.846 62.2026 289.906 62.2026C145.967 62.2026 145.939 36.9435 2 36.9435" stroke="#36357E" stroke-width="3.863" stroke-linecap="round" stroke-linejoin="round"/>
<path d="M1441 27.262C1297.17 27.262 1297.17 2 1153.32 2C1009.47 2 1009.4 27.262 865.506 27.262C721.614 27.262 721.655 2 577.804 2C433.844 2 433.844 27.262 289.905 27.262C145.965 27.262 145.945 2 2.00537 2" stroke="#36357E" stroke-width="3.863" stroke-linecap="round" stroke-linejoin="round"/>
</svg>
