<svg width="1440" height="974" viewBox="0 0 1440 974" fill="none" xmlns="http://www.w3.org/2000/svg">
<path d="M1441 971.146C1297.17 971.146 1297.17 945.884 1153.32 945.884C1009.47 945.884 1009.4 971.146 865.506 971.146C721.614 971.146 721.655 945.884 577.804 945.884C433.844 945.884 433.844 971.146 289.905 971.146C145.965 971.146 145.945 945.884 2.00525 945.884" stroke="#36357E" stroke-width="3.863" stroke-linecap="round" stroke-linejoin="round"/>
<path d="M1441 936.203C1297.17 936.203 1297.17 910.943 1153.32 910.943C1009.47 910.943 1009.4 936.203 865.507 936.203C721.616 936.203 721.657 910.943 577.806 910.943C433.846 910.943 433.846 936.203 289.906 936.203C145.967 936.203 145.939 910.943 2 910.943" stroke="#36357E" stroke-width="3.863" stroke-linecap="round" stroke-linejoin="round"/>
<path d="M1441 901.262C1297.17 901.262 1297.17 876 1153.32 876C1009.47 876 1009.4 901.262 865.506 901.262C721.614 901.262 721.655 876 577.804 876C433.844 876 433.844 901.262 289.905 901.262C145.965 901.262 145.945 876 2.00525 876" stroke="#36357E" stroke-width="3.863" stroke-linecap="round" stroke-linejoin="round"/>
<path d="M1441 870.146C1297.17 870.146 1297.17 844.884 1153.32 844.884C1009.47 844.884 1009.4 870.146 865.506 870.146C721.614 870.146 721.655 844.884 577.804 844.884C433.844 844.884 433.844 870.146 289.905 870.146C145.965 870.146 145.945 844.884 2.00525 844.884" stroke="#FF601C" stroke-width="3.863" stroke-linecap="round" stroke-linejoin="round"/>
<path d="M1441 835.203C1297.17 835.203 1297.17 809.943 1153.32 809.943C1009.47 809.943 1009.4 835.203 865.507 835.203C721.616 835.203 721.657 809.943 577.806 809.943C433.846 809.943 433.846 835.203 289.906 835.203C145.967 835.203 145.939 809.943 2 809.943" stroke="#FF601C" stroke-width="3.863" stroke-linecap="round" stroke-linejoin="round"/>
<path d="M1441 800.262C1297.17 800.262 1297.17 775 1153.32 775C1009.47 775 1009.4 800.262 865.506 800.262C721.614 800.262 721.655 775 577.804 775C433.844 775 433.844 800.262 289.905 800.262C145.965 800.262 145.945 775 2.00525 775" stroke="#FF601C" stroke-width="3.863" stroke-linecap="round" stroke-linejoin="round"/>
<path d="M1442 97.146C1298.07 97.146 1298.07 71.8839 1154.12 71.8839C1010.17 71.8839 1010.1 97.146 866.106 97.146C722.114 97.146 722.155 71.8839 578.204 71.8839C434.144 71.8839 434.144 97.146 290.105 97.146C146.065 97.146 146.045 71.8839 2.00525 71.8839" stroke="#FF601C" stroke-width="3.863" stroke-linecap="round" stroke-linejoin="round"/>
<path d="M1442 62.2026C1298.07 62.2026 1298.07 36.9435 1154.12 36.9435C1010.17 36.9435 1010.1 62.2026 866.107 62.2026C722.116 62.2026 722.157 36.9435 578.206 36.9435C434.146 36.9435 434.146 62.2026 290.106 62.2026C146.067 62.2026 146.039 36.9435 2 36.9435" stroke="#FF601C" stroke-width="3.863" stroke-linecap="round" stroke-linejoin="round"/>
<path d="M1442 27.262C1298.07 27.262 1298.07 2 1154.12 2C1010.17 2 1010.1 27.262 866.106 27.262C722.114 27.262 722.155 2 578.204 2C434.144 2 434.144 27.262 290.105 27.262C146.065 27.262 146.045 2 2.00525 2" stroke="#FF601C" stroke-width="3.863" stroke-linecap="round" stroke-linejoin="round"/>
</svg>
