<svg width="1439" height="100" viewBox="0 0 1439 100" fill="none" xmlns="http://www.w3.org/2000/svg">
<path d="M1437 97.146C1293.17 97.146 1293.17 71.8839 1149.32 71.8839C1005.47 71.8839 1005.4 97.146 861.506 97.146C717.614 97.146 717.655 71.8839 573.804 71.8839C429.844 71.8839 429.844 97.146 285.905 97.146C141.965 97.146 141.945 71.8839 -1.99463 71.8839" stroke="#36357E" stroke-width="3.863" stroke-linecap="round" stroke-linejoin="round"/>
<path d="M1437 62.2026C1293.17 62.2026 1293.17 36.9435 1149.32 36.9435C1005.47 36.9435 1005.4 62.2026 861.507 62.2026C717.616 62.2026 717.657 36.9435 573.806 36.9435C429.846 36.9435 429.846 62.2026 285.906 62.2026C141.967 62.2026 141.939 36.9435 -2 36.9435" stroke="#36357E" stroke-width="3.863" stroke-linecap="round" stroke-linejoin="round"/>
<path d="M1437 27.262C1293.17 27.262 1293.17 2 1149.32 2C1005.47 2 1005.4 27.262 861.506 27.262C717.614 27.262 717.655 2 573.804 2C429.844 2 429.844 27.262 285.905 27.262C141.965 27.262 141.945 2 -1.99463 2" stroke="#36357E" stroke-width="3.863" stroke-linecap="round" stroke-linejoin="round"/>
</svg>
