<svg width="1440" height="100" viewBox="0 0 1440 100" fill="none" xmlns="http://www.w3.org/2000/svg">
<path d="M1440 97.146C1296.07 97.146 1296.07 71.8839 1152.12 71.8839C1008.17 71.8839 1008.1 97.146 864.106 97.146C720.114 97.146 720.155 71.8839 576.204 71.8839C432.144 71.8839 432.144 97.146 288.105 97.146C144.065 97.146 144.045 71.8839 0.00537109 71.8839" stroke="#FF601C" stroke-width="3.863" stroke-linecap="round" stroke-linejoin="round"/>
<path d="M1440 62.2026C1296.07 62.2026 1296.07 36.9435 1152.12 36.9435C1008.17 36.9435 1008.1 62.2026 864.107 62.2026C720.116 62.2026 720.157 36.9435 576.206 36.9435C432.146 36.9435 432.146 62.2026 288.106 62.2026C144.067 62.2026 144.039 36.9435 0 36.9435" stroke="#FF601C" stroke-width="3.863" stroke-linecap="round" stroke-linejoin="round"/>
<path d="M1440 27.262C1296.07 27.262 1296.07 2 1152.12 2C1008.17 2 1008.1 27.262 864.106 27.262C720.114 27.262 720.155 2 576.204 2C432.144 2 432.144 27.262 288.105 27.262C144.065 27.262 144.045 2 0.00537109 2" stroke="#FF601C" stroke-width="3.863" stroke-linecap="round" stroke-linejoin="round"/>
</svg>
